<?xml version="1.0" encoding="UTF-8" standalone="no"?>
<!-- Created with Inkscape (http://www.inkscape.org/) -->

<svg
   xmlns:dc="http://purl.org/dc/elements/1.1/"
   xmlns:cc="http://creativecommons.org/ns#"
   xmlns:rdf="http://www.w3.org/1999/02/22-rdf-syntax-ns#"
   xmlns:svg="http://www.w3.org/2000/svg"
   xmlns="http://www.w3.org/2000/svg"
   xmlns:sodipodi="http://sodipodi.sourceforge.net/DTD/sodipodi-0.dtd"
   xmlns:inkscape="http://www.inkscape.org/namespaces/inkscape"
   width="700"
   height="300"
   viewBox="0 0 700.00002 300.00002"
   id="svg3350"
   version="1.1"
   inkscape:version="0.91 r13725"
   sodipodi:docname="Baasha.svg">
  <defs
     id="defs3352">
    <inkscape:path-effect
       effect="skeletal"
       id="path-effect3400"
       is_visible="true"
       pattern="m -3.0517581e-5,757.36212 c 0,-2.76 2.240000017581,-5 5.000000017581,-5 2.76,0 5,2.24 5,5 0,2.76 -2.24,5 -5,5 -2.76,0 -5.000000017581,-2.24 -5.000000017581,-5 z"
       copytype="single_stretched"
       prop_scale="1"
       scale_y_rel="false"
       spacing="0"
       normal_offset="0"
       tang_offset="0"
       prop_units="false"
       vertical_pattern="false"
       fuse_tolerance="0" />
    <inkscape:path-effect
       effect="skeletal"
       id="path-effect3396"
       is_visible="true"
       pattern="m -3.0517581e-5,757.36212 c 0,-2.76 2.240000017581,-5 5.000000017581,-5 2.76,0 5,2.24 5,5 0,2.76 -2.24,5 -5,5 -2.76,0 -5.000000017581,-2.24 -5.000000017581,-5 z"
       copytype="single_stretched"
       prop_scale="1"
       scale_y_rel="false"
       spacing="0"
       normal_offset="0"
       tang_offset="0"
       prop_units="false"
       vertical_pattern="false"
       fuse_tolerance="0" />
    <inkscape:path-effect
       effect="skeletal"
       id="path-effect3392"
       is_visible="true"
       pattern="m -3.0517581e-5,757.36212 c 0,-2.76 2.240000017581,-5 5.000000017581,-5 2.76,0 5,2.24 5,5 0,2.76 -2.24,5 -5,5 -2.76,0 -5.000000017581,-2.24 -5.000000017581,-5 z"
       copytype="single_stretched"
       prop_scale="1"
       scale_y_rel="false"
       spacing="0"
       normal_offset="0"
       tang_offset="0"
       prop_units="false"
       vertical_pattern="false"
       fuse_tolerance="0" />
    <marker
       markerWidth="299.81324"
       markerHeight="188.79746"
       refX="149.90662"
       refY="94.398728"
       orient="auto"
       id="marker3426">
      <ellipse
         ry="76.721077"
         rx="149.90662"
         cy="76.721077"
         cx="149.90662"
         id="path3422"
         style="fill:#d40000;fill-opacity:1" />
      <path
         transform="matrix(0.91315009,0,0,0.88884629,-12.604732,-723.96434)"
         inkscape:transform-center-y="-11.280736"
         inkscape:transform-center-x="15.117335"
         d="M 286.37821,1026.9062 192.74844,998.23191 99.118683,969.55759 170.76626,902.809 l 71.64757,-66.74859 21.98219,95.42291 z"
         inkscape:randomized="0"
         inkscape:rounded="0"
         inkscape:flatsided="false"
         sodipodi:arg2="1.8679792"
         sodipodi:arg1="0.82078162"
         sodipodi:r2="56.535385"
         sodipodi:r1="113.07077"
         sodipodi:cy="944.17474"
         sodipodi:cx="209.30357"
         sodipodi:sides="3"
         id="path3424"
         style="fill:#d40000;fill-opacity:1"
         sodipodi:type="star" />
    </marker>
    <symbol
       id="CircleBalloon"
       style="stroke-linejoin:miter;stroke-miterlimit:10">
      <title
         id="title5308">Circle Balloon</title>
      <ellipse
         cx="205"
         cy="125"
         rx="125"
         ry="70"
         style="stroke:none"
         id="ellipse5310" />
      <path
         d="m 110,166 c 11,21 -10,30 -22,43 32,-3 59,-7 70,-26"
         style="stroke:none"
         id="path5312" />
      <ellipse
         cx="200"
         cy="120"
         rx="125"
         ry="70"
         style="fill:#eeeeee;stroke-width:3.5"
         id="ellipse5314" />
      <path
         d="m 106,162 c 11,21 -10,30 -22,43 32,-3 59,-7 70,-26"
         style="fill:#eeeeee;stroke-width:3.5"
         id="path5316" />
      <ellipse
         cx="197"
         cy="117"
         rx="117"
         ry="63"
         style="fill:white;stroke:none"
         id="ellipse5318" />
      <path
         d="m 103,149 c 14,25 9,34 -6,47 30,-3 50,-10 58,-31"
         style="fill:white;stroke:none"
         id="path5320" />
    </symbol>
  </defs>
  <sodipodi:namedview
     id="base"
     pagecolor="#ffffff"
     bordercolor="#666666"
     borderopacity="0.10196078"
     inkscape:pageopacity="0.09411765"
     inkscape:pageshadow="2"
     inkscape:zoom="1.2081424"
     inkscape:cx="346.18861"
     inkscape:cy="150"
     inkscape:document-units="px"
     inkscape:current-layer="g7692"
     showgrid="false"
     inkscape:window-width="1680"
     inkscape:window-height="987"
     inkscape:window-x="-8"
     inkscape:window-y="-8"
     inkscape:window-maximized="1"
     showguides="false"
     width="300mm"
     units="px">
    <inkscape:grid
       type="xygrid"
       id="grid3388" />
  </sodipodi:namedview>
  <metadata
     id="metadata3355">
    <rdf:RDF>
      <cc:Work
         rdf:about="">
        <dc:format>image/svg+xml</dc:format>
        <dc:type
           rdf:resource="http://purl.org/dc/dcmitype/StillImage" />
        <dc:title />
      </cc:Work>
    </rdf:RDF>
  </metadata>
  <g
     inkscape:label="Layer 1"
     inkscape:groupmode="layer"
     id="layer1"
     transform="translate(0,-752.36212)"
     style="display:none">
    <g
       id="g7532"
       transform="translate(-28.991381,-20.506099)">
      <path
         inkscape:connector-curvature="0"
         id="path7524"
         d="m 162.24456,958.81494 c 2.28029,-5.87494 6.42104,-11.02289 13.14925,-16.34757 l 3.67942,-2.9119 0.0126,-2.6028 c 0.0105,-2.16705 0.22374,-2.97252 1.27365,-4.81125 1.7946,-3.1429 2.02304,-3.22553 3.40129,-1.2304 1.99743,2.89147 4.93036,3.61127 10.75663,2.63987 7.37842,-1.23019 12.49462,0.18226 15.24926,4.20987 0.7782,1.13785 0.98341,1.97838 1.12214,4.59639 0.0965,1.82037 -0.0546,4.01638 -0.34969,5.08539 -0.66607,2.41245 -3.40071,7.17234 -5.94339,10.34495 -4.13708,5.16207 -12.86432,11.48866 -19.25729,13.96014 -5.80013,2.2423 -11.58424,3.1112 -15.72234,2.3619 -2.54254,-0.4603 -5.17743,-2.04267 -6.67786,-4.00989 -1.15775,-1.51812 -1.34352,-2.08514 -1.61302,-4.92351 -0.28159,-2.96575 -0.21218,-3.44581 0.91932,-6.36119 z"
         style="fill:#80b3ff;fill-opacity:1" />
      <path
         inkscape:connector-curvature="0"
         id="path7526"
         d="m 245.89267,951.43419 c -12.17143,-3.19379 -23.26215,-10.06884 -34.36098,-21.30014 l -5.82231,-5.89179 -4.12711,0 c -4.56907,0 -10.47843,-1.88739 -13.76819,-4.39741 l -1.86349,-1.42182 2.63204,-1.00602 c 5.74803,-2.19705 8.27128,-7.25179 6.92716,-13.877 -2.33093,-11.48914 0.59642,-19.77226 8.2794,-23.42705 2.84809,-1.35485 3.96584,-1.52902 9.8123,-1.52902 7.6911,0 10.98414,0.78099 18.72892,4.44178 12.9164,6.10532 22.58907,14.26036 30.95232,26.09593 7.18447,10.16739 10.5037,20.43833 9.30802,28.80264 -0.921,6.44292 -5.05631,11.30123 -11.24291,13.20858 -3.50599,1.08092 -11.86321,1.24385 -15.45517,0.30132 z"
         style="fill:#ffcc00;fill-opacity:1" />
      <path
         inkscape:transform-center-y="25.173894"
         inkscape:transform-center-x="-1.6196897"
         inkscape:connector-curvature="0"
         id="path7528"
         d="m 85.133656,917.74058 c -9.093612,-15.14038 -13.158261,-29.5744 -11.750667,-41.72776 0.750102,-6.47638 2.827018,-10.42112 7.223652,-13.72006 16.095302,-12.07683 48.830279,7.49158 69.200419,41.36684 l 4.78001,7.94909 3.3177,0.49512 c 5.10741,0.76217 9.93647,3.87644 19.4177,12.52241 l 1.69135,1.54236 -3.6809,-0.35637 c -2.02452,-0.19599 -4.54354,-0.11558 -5.59785,0.17882 -5.30593,1.4813 -8.41868,6.55358 -8.03885,13.09943 0.52021,8.96528 -3.0157,17.16124 -8.89086,20.60829 -3.9886,2.34019 -7.28561,2.82529 -13.62302,2.00443 -6.76522,-0.8763 -11.38726,-2.64464 -18.79625,-7.19114 -13.49595,-8.28172 -25.932358,-21.25403 -35.252434,-36.77146 z"
         style="fill:#ff6600;fill-opacity:1" />
      <path
         inkscape:connector-curvature="0"
         id="path7530"
         d="m 184.57751,908.82378 c -1.8079,-2.89049 -3.62389,-4.0232 -7.17803,-4.47722 -2.50331,-0.31979 -3.29005,-0.1716 -7.00287,1.31905 -14.49169,5.81821 -25.81176,-3.2626 -25.81176,-20.70587 0,-18.63698 12.58527,-38.75622 28.08225,-44.89324 6.50631,-2.57659 12.91525,-1.95629 17.80591,1.72337 10.94807,8.23718 10.04117,31.34449 -1.89653,48.32205 -2.80774,3.99313 -2.8169,4.01998 -1.88976,5.54655 1.25623,2.06844 1.63499,7.97761 0.77498,12.09095 -0.38647,1.84844 -0.87214,3.36017 -1.07928,3.35939 -0.20713,-6.9e-4 -1.01934,-1.02904 -1.80491,-2.28503 z"
         style="fill:#5a2ca0;fill-opacity:1" />
    </g>
  </g>
  <g
     inkscape:groupmode="layer"
     id="layer2"
     inkscape:label="Layer 2"
     style="display:inline">
    <g
       id="g7574"
       transform="matrix(0.70034243,0,0,0.76320052,14.996956,16.402974)"
       sodipodi:insensitive="true"
       style="display:none">
      <path
         inkscape:transform-center-y="25.173894"
         inkscape:transform-center-x="-1.6196897"
         inkscape:connector-curvature="0"
         id="path7528-5"
         d="M 62.070149,147.96255 C 52.976537,132.82217 48.911888,118.38815 50.319482,106.23479 51.069584,99.758401 53.1465,95.813661 57.543134,92.514721 73.638436,80.437891 106.37342,100.0063 126.74356,133.88157 l 4.78001,7.94909 3.3177,0.49512 c 5.10741,0.76217 9.93647,3.87644 19.4177,12.52241 l 1.69135,1.54236 -3.6809,-0.35637 c -2.02452,-0.19599 -4.54354,-0.11558 -5.59785,0.17882 -5.30593,1.4813 -8.41868,6.55358 -8.03885,13.09943 0.52021,8.96528 -3.0157,17.16124 -8.89086,20.60829 -3.9886,2.34019 -7.28561,2.82529 -13.62302,2.00443 -6.76522,-0.8763 -11.38726,-2.64464 -18.796257,-7.19114 -13.49595,-8.28172 -25.932358,-21.25403 -35.252434,-36.77146 z"
         style="fill:#ff6600;fill-opacity:1" />
      <text
         transform="scale(1.1049154,0.90504667)"
         sodipodi:linespacing="125%"
         id="text7570"
         y="226.00005"
         x="116.20286"
         style="font-style:normal;font-variant:normal;font-weight:bold;font-stretch:semi-expanded;font-size:121.76797485px;line-height:125%;font-family:Magneto;-inkscape-font-specification:'Magneto Bold Semi-Expanded';letter-spacing:0px;word-spacing:0px;fill:#374548;fill-opacity:1;stroke:none;stroke-width:1px;stroke-linecap:butt;stroke-linejoin:miter;stroke-opacity:1"
         xml:space="preserve"><tspan
           y="226.00005"
           x="116.20286"
           id="tspan7572"
           sodipodi:role="line">B</tspan></text>
      <path
         inkscape:connector-curvature="0"
         id="path7524-8"
         d="m 147.18506,227.96687 c 2.76662,-7.72929 7.79049,-14.50212 15.95365,-21.50746 l 4.46415,-3.831 0.0153,-3.42434 c 0.0127,-2.85105 0.27145,-3.91076 1.54528,-6.32986 2.17735,-4.13491 2.45451,-4.24362 4.1267,-1.61876 2.42343,3.80412 5.98188,4.75112 13.05075,3.47311 8.95205,-1.61848 15.1594,0.23979 18.50154,5.53866 0.94417,1.497 1.19314,2.60283 1.36146,6.04718 0.11708,2.39494 -0.0662,5.28409 -0.42427,6.69052 -0.80812,3.17391 -4.12599,9.4362 -7.21096,13.6102 -5.01942,6.79141 -15.60795,15.1149 -23.36438,18.36647 -7.03715,2.95005 -14.05487,4.09321 -19.07552,3.1074 -3.0848,-0.60559 -6.28164,-2.68741 -8.10208,-5.27556 -1.40467,-1.99729 -1.63006,-2.74328 -1.95703,-6.47755 -0.34165,-3.90185 -0.25744,-4.53343 1.11539,-8.36901 z"
         style="fill:#80b3ff;fill-opacity:1" />
      <path
         inkscape:connector-curvature="0"
         id="path7526-2"
         d="m 299.19669,194.38407 c -12.17143,-3.19379 -23.26215,-10.06884 -34.36098,-21.30014 l -5.82231,-5.89179 -4.12711,0 c -4.56907,0 -10.47843,-1.88739 -13.76819,-4.39741 l -1.86349,-1.42182 2.63204,-1.00602 c 5.74803,-2.19705 8.27128,-7.25179 6.92716,-13.877 -2.33093,-11.48914 0.59642,-19.77226 8.2794,-23.42705 2.84809,-1.35485 3.96584,-1.52902 9.8123,-1.52902 7.6911,0 10.98414,0.78099 18.72892,4.44178 12.9164,6.10532 22.58907,14.26036 30.95232,26.09593 7.18447,10.16739 10.5037,20.43833 9.30802,28.80264 -0.921,6.44292 -5.05631,11.30123 -11.24291,13.20858 -3.50599,1.08092 -11.86321,1.24385 -15.45517,0.30132 z"
         style="fill:#ffcc00;fill-opacity:1" />
      <path
         inkscape:connector-curvature="0"
         id="path7530-6"
         d="m 181.60542,133.46868 c 0.15059,-3.40598 -0.70252,-5.36891 -3.37208,-7.75878 -1.88026,-1.68328 -2.61225,-2.00749 -6.51554,-2.88579 -15.23509,-3.42818 -19.40722,-17.32776 -9.51316,-31.693527 10.57115,-15.348876 32.34791,-24.779956 48.59177,-21.044129 6.81989,1.568463 11.74626,5.714562 13.68691,11.519071 4.34427,12.993794 -9.5094,31.509885 -28.97085,38.720885 -4.57733,1.69604 -4.6001,1.71296 -4.70243,3.49608 -0.13865,2.41606 -3.17847,7.49752 -6.21989,10.39733 -1.36674,1.30311 -2.6242,2.27264 -2.79435,2.15451 -0.1702,-0.11806 -0.25582,-1.42567 -0.19038,-2.90565 z"
         style="fill:#5a2ca0;fill-opacity:1" />
    </g>
  </g>
  <g
     inkscape:groupmode="layer"
     id="layer3"
     inkscape:label="Layer 3"
     style="display:none">
    <text
       xml:space="preserve"
       style="font-style:normal;font-weight:bold;font-size:111.05566406px;line-height:125%;font-family:Magneto;letter-spacing:0px;word-spacing:0px;fill:#d45500;fill-opacity:1;stroke:none;stroke-width:1px;stroke-linecap:butt;stroke-linejoin:miter;stroke-opacity:1;-inkscape-font-specification:'Magneto Bold Semi-Expanded';font-stretch:semi-expanded;font-variant:normal;"
       x="245.08411"
       y="176.65906"
       id="text7582"
       sodipodi:linespacing="125%"
       transform="scale(1.0018035,0.99819974)"><tspan
         sodipodi:role="line"
         id="tspan7584"
         x="245.08411"
         y="176.65906"
         style="font-style:normal;font-variant:normal;font-weight:bold;font-stretch:semi-expanded;font-family:Magneto;-inkscape-font-specification:'Magneto Bold Semi-Expanded';fill:#d45500;">Baasha</tspan></text>
  </g>
  <g
     inkscape:groupmode="layer"
     id="layer4"
     inkscape:label="Layer 4"
     sodipodi:insensitive="true"
     style="display:none">
    <g
       id="g7637"
       transform="translate(5.6555191,-23.337795)"
       inkscape:export-xdpi="143.8"
       inkscape:export-ydpi="143.8">
      <path
         style="display:inline;fill:#ff6600;fill-opacity:1"
         d="m 137.55986,96.574467 c 2.83496,13.845293 -1.01671,28.937583 -12.23146,47.926453 l -6.1329,10.38436 4.20607,4.7556 c 3.5016,3.95957 4.18451,5.72034 4.0777,10.5181 -0.18288,8.20082 -0.72367,8.66688 -8.05185,6.9391 -10.62038,-2.50402 -20.466623,0.23778 -36.111423,10.05573 -19.81261,12.43351 -37.244082,16.93083 -51.955783,13.40471 -4.156248,-0.99618 -6.133324,-2.24279 -10.811653,-6.817 -3.253086,-3.18051 -6.386415,-7.38694 -7.256657,-9.74066 -1.96262,-5.31214 -1.63699,-17.75512 0.709474,-27.04353 3.81783,-15.11297 19.310339,-38.68757 34.185299,-52.01925 13.49557,-12.095413 29.18282,-21.668526 42.64089,-26.021709 8.26879,-2.674849 18.639963,-3.434617 26.283933,-1.92647 5.89848,1.164058 7.3722,1.939606 12.79646,6.73429 5.66773,5.009877 6.24511,5.979657 7.65215,12.850169 z"
         id="path7524-8-6"
         inkscape:connector-curvature="0" />
      <text
         transform="matrix(0.98316672,0.191055,-0.19046098,0.98010994,0,0)"
         sodipodi:linespacing="125%"
         id="text7621"
         y="163.98085"
         x="56.676105"
         style="font-style:normal;font-variant:normal;font-weight:bold;font-stretch:semi-expanded;font-size:107.56758881px;line-height:125%;font-family:Magneto;-inkscape-font-specification:'Magneto Bold Semi-Expanded';letter-spacing:0px;word-spacing:0px;fill:#f9f9f9;fill-opacity:1;stroke:none;stroke-width:1px;stroke-linecap:butt;stroke-linejoin:miter;stroke-opacity:1"
         xml:space="preserve"><tspan
           y="163.98085"
           x="56.676105"
           id="tspan7623"
           sodipodi:role="line">B<tspan
   id="tspan7625"
   style="font-size:68.84326935px;fill:#f9f9f9" /></tspan></text>
    </g>
    <text
       xml:space="preserve"
       style="font-style:normal;font-variant:normal;font-weight:bold;font-stretch:semi-expanded;font-size:108.082901px;line-height:125%;font-family:Magneto;-inkscape-font-specification:'Magneto Bold Semi-Expanded';letter-spacing:0px;word-spacing:0px;fill:#333333;fill-opacity:1;stroke:none;stroke-width:1px;stroke-linecap:butt;stroke-linejoin:miter;stroke-opacity:1"
       x="117.05524"
       y="218.55312"
       id="text7627"
       sodipodi:linespacing="125%"
       transform="scale(0.90466776,1.1053782)"
       inkscape:export-xdpi="143.8"
       inkscape:export-ydpi="143.8"><tspan
         sodipodi:role="line"
         id="tspan7629"
         x="117.05524"
         y="218.55312"
         style="font-style:normal;font-variant:normal;font-weight:normal;font-stretch:normal;font-family:'Century Gothic';-inkscape-font-specification:'Century Gothic';fill:#333333">Baasha.net</tspan></text>
    <text
       xml:space="preserve"
       style="font-style:normal;font-weight:normal;font-size:89.25147247px;line-height:125%;font-family:sans-serif;letter-spacing:0px;word-spacing:0px;fill:#454837;fill-opacity:1;stroke:none;stroke-width:1px;stroke-linecap:butt;stroke-linejoin:miter;stroke-opacity:1"
       x="522.16669"
       y="240.80164"
       id="text7631"
       sodipodi:linespacing="125%"
       transform="scale(0.96302271,1.0383971)"><tspan
         sodipodi:role="line"
         id="tspan7633"
         x="522.16669"
         y="240.80164"
         style="font-size:12500.00097656px">.<tspan
   style="font-style:normal;font-variant:normal;font-weight:normal;font-stretch:normal;font-size:12500.00097656px;font-family:'Century Gothic';-inkscape-font-specification:'Century Gothic';fill:#454837"
   id="tspan7635">net</tspan></tspan></text>
  </g>
  <g
     inkscape:label="Layer 4 copy"
     id="g7690"
     inkscape:groupmode="layer">
    <g
       inkscape:export-ydpi="143.8"
       inkscape:export-xdpi="143.8"
       transform="translate(5.6555191,-23.337795)"
       id="g7692">
      <path
         inkscape:connector-curvature="0"
         id="path7694"
         d="m 137.55986,96.574467 c 2.83496,13.845293 -1.01671,28.937583 -12.23146,47.926453 l -6.1329,10.38436 4.20607,4.7556 c 3.5016,3.95957 4.18451,5.72034 4.0777,10.5181 -0.18288,8.20082 -0.72367,8.66688 -8.05185,6.9391 -10.62038,-2.50402 -20.466623,0.23778 -36.111423,10.05573 -19.81261,12.43351 -37.244082,16.93083 -51.955783,13.40471 -4.156248,-0.99618 -6.133324,-2.24279 -10.811653,-6.817 -3.253086,-3.18051 -6.386415,-7.38694 -7.256657,-9.74066 -1.96262,-5.31214 -1.63699,-17.75512 0.709474,-27.04353 3.81783,-15.11297 19.310339,-38.68757 34.185299,-52.01925 13.49557,-12.095413 29.18282,-21.668526 42.64089,-26.021709 8.26879,-2.674849 18.639963,-3.434617 26.283933,-1.92647 5.89848,1.164058 7.3722,1.939606 12.79646,6.73429 5.66773,5.009877 6.24511,5.979657 7.65215,12.850169 z"
         style="display:inline;fill:#ff6600;fill-opacity:1" />
      <text
         xml:space="preserve"
         style="font-style:normal;font-variant:normal;font-weight:bold;font-stretch:semi-expanded;font-size:107.56758881px;line-height:125%;font-family:Magneto;-inkscape-font-specification:'Magneto Bold Semi-Expanded';letter-spacing:0px;word-spacing:0px;fill:#ffffff;fill-opacity:1;stroke:none;stroke-width:1px;stroke-linecap:butt;stroke-linejoin:miter;stroke-opacity:1;"
         x="51.966232"
         y="165.74347"
         id="text7696"
         sodipodi:linespacing="125%"
         transform="matrix(0.98316672,0.191055,-0.19046098,0.98010994,0,0)"><tspan
           sodipodi:role="line"
           id="tspan7698"
           x="51.966232"
           y="165.74347">B<tspan
   style="font-size:68.84326935px;fill:#ffffff;"
   id="tspan7700" /></tspan></text>
    </g>
    <text
       inkscape:export-ydpi="143.8"
       inkscape:export-xdpi="143.8"
       transform="scale(0.90466776,1.1053782)"
       sodipodi:linespacing="125%"
       id="text7702"
       y="218.55312"
       x="117.05524"
       style="font-style:normal;font-variant:normal;font-weight:bold;font-stretch:semi-expanded;font-size:108.082901px;line-height:125%;font-family:Magneto;-inkscape-font-specification:'Magneto Bold Semi-Expanded';letter-spacing:0px;word-spacing:0px;fill:#333333;fill-opacity:1;stroke:none;stroke-width:1px;stroke-linecap:butt;stroke-linejoin:miter;stroke-opacity:1;"
       xml:space="preserve"><tspan
         style="font-style:normal;font-variant:normal;font-weight:normal;font-stretch:normal;font-family:'Century Gothic';-inkscape-font-specification:'Century Gothic';fill:#333333;"
         y="218.55312"
         x="117.05524"
         id="tspan7704"
         sodipodi:role="line">Baasha.net</tspan></text>
    <text
       transform="scale(0.96302271,1.0383971)"
       sodipodi:linespacing="125%"
       id="text7706"
       y="240.80164"
       x="522.16669"
       style="font-style:normal;font-weight:normal;font-size:89.25147247px;line-height:125%;font-family:sans-serif;letter-spacing:0px;word-spacing:0px;fill:#454837;fill-opacity:1;stroke:none;stroke-width:1px;stroke-linecap:butt;stroke-linejoin:miter;stroke-opacity:1"
       xml:space="preserve"><tspan
         style="font-size:12500.00124763px"
         y="240.80164"
         x="522.16669"
         id="tspan7708"
         sodipodi:role="line">.<tspan
   id="tspan7710"
   style="font-style:normal;font-variant:normal;font-weight:normal;font-stretch:normal;font-family:'Century Gothic';-inkscape-font-specification:'Century Gothic';fill:#454837;font-size:12500.00124763px">net</tspan></tspan></text>
  </g>
</svg>
