<?xml version="1.0" encoding="UTF-8" standalone="no"?>
<!-- Created with Inkscape (http://www.inkscape.org/) -->

<svg
   xmlns:dc="http://purl.org/dc/elements/1.1/"
   xmlns:cc="http://creativecommons.org/ns#"
   xmlns:rdf="http://www.w3.org/1999/02/22-rdf-syntax-ns#"
   xmlns:svg="http://www.w3.org/2000/svg"
   xmlns="http://www.w3.org/2000/svg"
   xmlns:sodipodi="http://sodipodi.sourceforge.net/DTD/sodipodi-0.dtd"
   xmlns:inkscape="http://www.inkscape.org/namespaces/inkscape"
   width="210mm"
   height="297mm"
   viewBox="0 0 744.09448819 1052.3622047"
   id="svg4836"
   version="1.1"
   inkscape:version="0.91 r13725"
   sodipodi:docname="drawing1.svg"
   inkscape:export-filename="C:\Users\rajesh\visvam\Tamil\web\logos\path7694.png"
   inkscape:export-xdpi="143.8"
   inkscape:export-ydpi="143.8">
  <defs
     id="defs4838" />
  <sodipodi:namedview
     id="base"
     pagecolor="#ffffff"
     bordercolor="#666666"
     borderopacity="1.0"
     inkscape:pageopacity="0.0"
     inkscape:pageshadow="2"
     inkscape:zoom="0.35"
     inkscape:cx="-96.428571"
     inkscape:cy="520"
     inkscape:document-units="px"
     inkscape:current-layer="layer1"
     showgrid="false"
     inkscape:window-width="1680"
     inkscape:window-height="987"
     inkscape:window-x="-8"
     inkscape:window-y="-8"
     inkscape:window-maximized="1" />
  <metadata
     id="metadata4841">
    <rdf:RDF>
      <cc:Work
         rdf:about="">
        <dc:format>image/svg+xml</dc:format>
        <dc:type
           rdf:resource="http://purl.org/dc/dcmitype/StillImage" />
        <dc:title></dc:title>
      </cc:Work>
    </rdf:RDF>
  </metadata>
  <g
     inkscape:label="Layer 1"
     inkscape:groupmode="layer"
     id="layer1">
    <path
       inkscape:connector-curvature="0"
       id="path7694"
       d="m 706.99638,242.08406 c 15.19823,78.46319 -5.45046,163.99332 -65.57169,271.60591 l -32.87805,58.84963 22.54861,26.95064 c 18.77184,22.43945 22.43282,32.41798 21.86027,59.60756 -0.98052,46.47519 -3.8797,49.11642 -43.16568,39.32485 C 552.8546,684.23201 500.06982,699.77018 416.1991,755.40988 309.98516,825.87232 216.53607,851.35924 137.66767,831.37625 115.38608,825.73076 104.78751,818.66605 79.706906,792.74336 62.267853,774.71897 45.469835,750.88054 40.80481,737.54167 30.283431,707.43702 32.02898,636.92092 44.608398,584.2822 65.075313,498.63488 148.12956,365.0343 227.8734,289.4818 300.2218,220.93542 384.32032,166.6832 456.46832,142.01313 c 44.32789,-15.15876 99.92717,-19.46447 140.90615,-10.91758 31.62145,6.59689 39.52185,10.99204 68.6006,38.16416 30.38469,28.3917 33.48009,33.88758 41.02292,72.82372 z"
       style="display:inline;fill:#ff6600;fill-opacity:1" />
    <text
       xml:space="preserve"
       style="font-style:normal;font-variant:normal;font-weight:bold;font-stretch:semi-expanded;font-size:592.902771px;line-height:125%;font-family:Magneto;-inkscape-font-specification:'Magneto Bold Semi-Expanded';letter-spacing:0px;word-spacing:0px;fill:#ffffff;fill-opacity:1;stroke:none;stroke-width:1px;stroke-linecap:butt;stroke-linejoin:miter;stroke-opacity:1"
       x="199.20634"
       y="627.68524"
       id="text7696"
       sodipodi:linespacing="125%"
       transform="matrix(0.95623642,0.19643564,-0.18524399,1.0077126,0,0)"><tspan
         sodipodi:role="line"
         id="tspan7698"
         x="199.20634"
         y="627.68524">B<tspan
   style="font-size:379.45785522px;fill:#ffffff"
   id="tspan7700" /></tspan></text>
  </g>
</svg>
